<svg xmlns="http://www.w3.org/2000/svg" version="1.1" xmlns:xlink="http://www.w3.org/1999/xlink" xmlns:svgjs="http://svgjs.dev/svgjs" width="1500" height="1500" viewBox="0 0 1500 1500"><rect width="1500" height="1500" fill="#ffffff"></rect><g transform="matrix(0.6666666666666666,0,0,0.6666666666666666,249.6738726488648,395.62051282051283)"><svg viewBox="0 0 348 247" data-background-color="#c8c8c8" preserveAspectRatio="xMidYMid meet" height="1064" width="1500" xmlns="http://www.w3.org/2000/svg" xmlns:xlink="http://www.w3.org/1999/xlink"><g id="tight-bounds" transform="matrix(1,0,0,1,0.1134923181950569,-0.09999999999999432)"><svg viewBox="0 0 347.7730153636099 247.2" height="247.2" width="347.7730153636099"><g><svg viewBox="0 0 395.52000000000004 281.1389604158192" height="247.2" width="347.7730153636099"><g transform="matrix(1,0,0,1,0,173.75515627269303)"><svg viewBox="0 0 395.52000000000004 107.38380414312617" height="107.38380414312617" width="395.52000000000004"><g id="textblocktransform"><svg viewBox="0 0 395.52000000000004 107.38380414312617" height="107.38380414312617" width="395.52000000000004" id="textblock"><g><svg viewBox="0 0 395.52000000000004 107.38380414312617" height="107.38380414312617" width="395.52000000000004"><g transform="matrix(1,0,0,1,0,0)"><svg width="395.52000000000004" viewBox="1.8 -31 159.29 43.25" height="107.38380414312617" data-palette-color="#000000"><path d="M1.85 0.15L1.85 0.15Q1.85-0.55 1.9-1.07 1.95-1.6 2.1-2L2.1-2Q4.1-2.1 4.83-2.98 5.55-3.85 5.55-6.35L5.55-6.35 5.55-16.25Q5.55-17.45 5.3-18.2 5.05-18.95 4.25-19.35 3.45-19.75 1.8-19.8L1.8-19.8Q1.8-20.35 1.9-20.8 2-21.25 2.25-21.65L2.25-21.65Q3.1-21.7 4.38-21.98 5.65-22.25 6.85-22.63 8.05-23 8.7-23.35L8.7-23.35Q9.15-23.2 9.47-22.75 9.8-22.3 9.8-21.35L9.8-21.35Q9.8-20.55 9.73-19.5 9.65-18.45 9.4-16.4L9.4-16.4 8.9-16.35Q9.6-18.25 9.93-18.9 10.25-19.55 10.4-19.75L10.4-19.75Q11.2-20.9 13.08-22.13 14.95-23.35 17.55-23.35L17.55-23.35Q19.65-23.35 21.4-22.4 23.15-21.45 23.95-19.15L23.95-19.15Q24.15-18.55 24.15-17.5L24.15-17.5 24-17.5Q24.45-18.75 25-19.5L25-19.5Q25.85-20.65 27.7-21.88 29.55-23.1 32.15-23.1L32.15-23.1Q34.05-23.1 35.65-22.33 37.25-21.55 38.23-19.78 39.2-18 39.2-14.95L39.2-14.95 39.2-6.35Q39.2-4.65 39.53-3.73 39.85-2.8 40.53-2.45 41.2-2.1 42.2-2L42.2-2Q42.35-1.55 42.4-1.05 42.45-0.55 42.45 0.15L42.45 0.15Q41.35 0.05 39.93 0.03 38.5 0 37 0L37 0Q36 0 34.95 0.03 33.9 0.05 32.9 0.08 31.9 0.1 31.05 0.15L31.05 0.15Q31.05-0.55 31.1-1.07 31.15-1.6 31.3-2L31.3-2Q32.65-2.1 33.4-2.48 34.15-2.85 34.45-3.78 34.75-4.7 34.75-6.35L34.75-6.35 34.75-13.95Q34.75-17.5 33.48-18.78 32.2-20.05 30.15-20.05L30.15-20.05Q28.9-20.05 27.6-19.23 26.3-18.4 25.45-16.57 24.6-14.75 24.6-11.7L24.6-11.7 24.6-6.35Q24.6-3.75 25.4-2.93 26.2-2.1 28.1-2L28.1-2Q28.25-1.55 28.3-1.05 28.35-0.55 28.35 0.15L28.35 0.15Q27.1 0.05 25.48 0.03 23.85 0 22.4 0L22.4 0Q20.95 0 19.38 0.03 17.8 0.05 16.45 0.15L16.45 0.15Q16.45-0.55 16.5-1.07 16.55-1.6 16.7-2L16.7-2Q18.05-2.1 18.8-2.48 19.55-2.85 19.85-3.78 20.15-4.7 20.15-6.35L20.15-6.35 20.15-14.2Q20.15-17.75 18.88-19.03 17.6-20.3 15.55-20.3L15.55-20.3Q14.3-20.3 13-19.48 11.7-18.65 10.85-16.82 10-15 10-11.95L10-11.95 10-6.35Q10-3.85 10.75-2.98 11.5-2.1 13.5-2L13.5-2Q13.65-1.55 13.7-1.05 13.75-0.55 13.75 0.15L13.75 0.15Q12.9 0.1 11.85 0.08 10.8 0.05 9.75 0.03 8.7 0 7.8 0L7.8 0Q6.95 0 5.85 0.03 4.75 0.05 3.7 0.08 2.65 0.1 1.85 0.15ZM55.5 0.2L55.5 0.2Q52.15 0.2 50.25-1.75 48.35-3.7 48.35-8.7L48.35-8.7 48.35-16.25Q48.35-18 47.85-18.88 47.35-19.75 45.05-19.8L45.05-19.8Q45.05-20.35 45.12-20.78 45.2-21.2 45.4-21.65L45.4-21.65Q46.95-21.75 48.77-22.25 50.6-22.75 51.75-23.35L51.75-23.35Q52.2-23.2 52.52-22.73 52.85-22.25 52.85-21.15L52.85-21.15 52.85-9.8Q52.85-6.45 53.77-4.65 54.7-2.85 57-2.85L57-2.85Q59.5-2.85 61.17-4.95 62.85-7.05 62.85-11.4L62.85-11.4 62.85-16.5Q62.85-18.25 62.22-19.13 61.6-20 59.1-20.05L59.1-20.05Q59.1-20.6 59.15-21.03 59.2-21.45 59.45-21.9L59.45-21.9Q61.4-22 63.27-22.43 65.15-22.85 66.25-23.35L66.25-23.35Q66.7-23.2 67.02-22.73 67.35-22.25 67.35-21.15L67.35-21.15 67.35-6.65 63.45-4.8Q63.2-4.15 62.75-3.53 62.3-2.9 61.75-2.35L61.75-2.35Q60.45-1.05 59-0.43 57.55 0.2 55.5 0.2ZM64.45 0.45L64.45 0.45Q63.95 0.2 63.57-0.28 63.2-0.75 63.2-2.45L63.2-2.45Q63.2-3 63.27-4 63.35-5 63.7-6.8L63.7-6.8 67.35-6.8Q67.35-5.65 67.55-4.88 67.75-4.1 68.42-3.75 69.1-3.4 70.45-3.4L70.45-3.4Q70.45-2.9 70.4-2.27 70.35-1.65 70.15-1.1L70.15-1.1Q68.9-1.05 67.25-0.63 65.6-0.2 64.45 0.45ZM82.85 0.45L82.85 0.45Q79.9 0.45 78.47-1.07 77.05-2.6 77.05-6L77.05-6 77.05-19.55Q76.3-19.8 75.5-19.98 74.7-20.15 73.45-20.2L73.45-20.2Q73.45-20.85 73.55-21.33 73.65-21.8 73.9-22.4L73.9-22.4 77.05-22.4 77.05-29Q78.05-29.25 79.02-29.8 80-30.35 80.75-31L80.75-31Q81.25-30.8 81.4-30.4 81.55-30 81.55-28.4L81.55-28.4 81.55-22.4 88.05-22.4Q88.05-21.9 87.95-21.33 87.85-20.75 87.6-20.2L87.6-20.2Q85.8-20.15 84.3-19.98 82.8-19.8 81.55-19.55L81.55-19.55 81.55-7.05Q81.55-5.4 81.9-4.33 82.25-3.25 82.9-2.75 83.55-2.25 84.45-2.25L84.45-2.25Q85.5-2.25 86.27-2.55 87.05-2.85 87.75-3.45L87.75-3.45Q88.4-2.7 88.5-1.8L88.5-1.8Q87.7-0.85 86.07-0.2 84.45 0.45 82.85 0.45ZM101.94-18.65L101.94-6.35Q101.94-4.7 102.24-3.78 102.54-2.85 103.32-2.45 104.09-2.05 105.39-2L105.39-2Q105.54-1.5 105.59-0.95 105.64-0.4 105.64 0.15L105.64 0.15Q104.89 0.1 104.07 0.08 103.24 0.05 102.42 0.03 101.59 0 100.87 0 100.14 0 99.69 0L99.69 0Q99.04 0 98.27 0 97.49 0 96.72 0.03 95.94 0.05 95.19 0.08 94.44 0.1 93.74 0.15L93.74 0.15Q93.74-0.4 93.79-0.95 93.84-1.5 93.99-2L93.99-2Q95.24-2.05 95.99-2.45 96.74-2.85 97.09-3.78 97.44-4.7 97.44-6.35L97.44-6.35 97.44-18.65Q97.44-20.3 97.14-21.2 96.84-22.1 96.12-22.53 95.39-22.95 93.99-23L93.99-23Q93.89-23.45 93.82-24.03 93.74-24.6 93.74-25.15L93.74-25.15Q94.34-25.1 95.12-25.08 95.89-25.05 96.72-25.03 97.54-25 98.32-25 99.09-25 99.69-25L99.69-25Q100.74-25 101.82-25.03 102.89-25.05 103.87-25.08 104.84-25.1 105.64-25.15L105.64-25.15Q105.64-24.5 105.57-23.98 105.49-23.45 105.39-23L105.39-23Q104.09-22.95 103.32-22.53 102.54-22.1 102.24-21.2 101.94-20.3 101.94-18.65L101.94-18.65ZM126.54 0.45L126.54 0.45Q125.99 0.2 125.67-0.45 125.34-1.1 125.34-2.5L125.34-2.5Q125.34-2.95 125.39-3.58 125.44-4.2 125.59-4.7L125.59-4.7 125.69-4.7Q125.54-3.9 125.02-2.98 124.49-2.05 123.64-1.35L123.64-1.35Q122.79-0.6 121.49-0.13 120.19 0.35 118.34 0.35L118.34 0.35Q115.19 0.35 113.54-1.07 111.89-2.5 111.89-4.95L111.89-4.95Q111.89-6.9 112.82-8.28 113.74-9.65 115.22-10.58 116.69-11.5 118.42-12.05 120.14-12.6 121.79-12.9 123.44-13.2 124.69-13.4L124.69-13.4Q124.69-15.45 124.62-16.6 124.54-17.75 124.32-18.43 124.09-19.1 123.64-19.6L123.64-19.6Q123.04-20.35 122.27-20.73 121.49-21.1 120.54-21.1L120.54-21.1Q118.89-21.1 117.94-20.08 116.99-19.05 116.59-17.7 116.19-16.35 116.14-15.3L116.14-15.3Q115.59-15.3 114.77-15.38 113.94-15.45 113.54-15.65L113.54-15.65Q113.64-16.9 113.59-18.45 113.54-20 113.29-21.1L113.29-21.1Q115.34-22.15 117.62-22.75 119.89-23.35 121.79-23.35L121.79-23.35Q123.64-23.35 124.97-22.83 126.29-22.3 127.09-21.45L127.09-21.45Q128.39-20.2 128.79-18.18 129.19-16.15 129.19-12.8L129.19-12.8 129.19-7.3Q129.19-5.9 129.42-5.08 129.64-4.25 130.29-3.88 130.94-3.5 132.29-3.4L132.29-3.4Q132.29-2.9 132.24-2.27 132.19-1.65 131.99-1.1L131.99-1.1Q130.74-1.05 129.22-0.63 127.69-0.2 126.54 0.45ZM119.74-2.4L119.74-2.4Q120.84-2.4 121.99-3.13 123.14-3.85 123.92-5.4 124.69-6.95 124.69-9.45L124.69-9.45 124.69-11.35Q123.44-11.2 122.04-10.93 120.64-10.65 119.44-10.1 118.24-9.55 117.49-8.58 116.74-7.6 116.74-5.95L116.74-5.95Q116.74-4.1 117.64-3.25 118.54-2.4 119.74-2.4ZM148.49-23.35L148.49-23.35Q151.89-23.35 154.36-22.45 156.84-21.55 158.39-20L158.39-20 152.89-19.3Q152.34-19.9 151.14-20.48 149.94-21.05 148.69-21.05L148.69-21.05Q145.44-21.05 143.34-18.55 141.24-16.05 141.24-11.35L141.24-11.35Q141.24-8.25 142.16-6.4 143.09-4.55 144.51-3.78 145.94-3 147.34-3L147.34-3Q148.49-3 149.79-3.8 151.09-4.6 151.99-6.5 152.89-8.4 152.89-11.65L152.89-11.65 153.89-6.85Q153.59-5.9 153.11-4.83 152.64-3.75 152.19-3.15L152.19-3.15Q151.19-1.85 149.34-0.9 147.49 0.05 145.49 0.05L145.49 0.05Q143.09 0.05 140.99-1.15 138.89-2.35 137.59-4.75 136.29-7.15 136.29-10.7L136.29-10.7Q136.29-14.1 137.81-16.98 139.34-19.85 142.09-21.6 144.84-23.35 148.49-23.35ZM148.94 10.1L148.94 10.1Q150.54 10 151.39 9.63 152.24 9.25 152.56 8.33 152.89 7.4 152.89 5.75L152.89 5.75 152.89-1Q152.89-2.25 153.09-3.55 153.29-4.85 153.79-6.7L153.79-6.7 152.89-6.85 152.89-20 158.39-20Q158.09-19.5 157.86-18.8 157.64-18.1 157.51-17.07 157.39-16.05 157.39-14.55L157.39-14.55 157.39 5.75Q157.39 7.4 157.69 8.33 157.99 9.25 158.76 9.63 159.54 10 160.84 10.1L160.84 10.1Q160.99 10.55 161.04 11.05 161.09 11.55 161.09 12.25L161.09 12.25Q160.14 12.15 158.31 12.13 156.49 12.1 154.89 12.1L154.89 12.1Q153.84 12.1 152.71 12.13 151.59 12.15 150.56 12.18 149.54 12.2 148.69 12.25L148.69 12.25Q148.69 11.55 148.74 11.03 148.79 10.5 148.94 10.1Z" opacity="1" transform="matrix(1,0,0,1,0,0)" fill="#000000" class="wordmark-text-0" data-fill-palette-color="primary" id="text-0"></path></svg></g></svg></g></svg></g></svg></g><g transform="matrix(1,0,0,1,123.55779133709983,0)"><svg viewBox="0 0 148.40441732580038 148.40441732580038" height="148.40441732580038" width="148.40441732580038"><g><svg xmlns:x="http://ns.adobe.com/Extensibility/1.0/" xmlns:i="http://ns.adobe.com/AdobeIllustrator/10.0/" xmlns:graph="http://ns.adobe.com/Graphs/1.0/" xmlns="http://www.w3.org/2000/svg" xmlns:xlink="http://www.w3.org/1999/xlink" version="1.1" x="0" y="0" viewBox="5 5 54 54" enable-background="new 0 0 64 64" xml:space="preserve" height="148.40441732580038" width="148.40441732580038" class="icon-icon-0" data-fill-palette-color="accent" id="icon-0"><g fill="#000000" data-fill-palette-color="accent"><path d="M32 5C17.112 5 5 17.112 5 32s12.112 27 27 27 27-12.112 27-27S46.888 5 32 5zM51.77 47.275c-2.293-1.221-5.075-2.225-8.159-2.948 0.822-3.401 1.31-7.233 1.378-11.327h11.986C56.763 38.362 54.854 43.294 51.77 47.275zM7.025 33h4.144c0.428 1.357 1.684 2.351 3.181 2.351 1.537 0 2.822-1.046 3.215-2.459C17.698 32.956 17.842 33 18 33h1.012c0.068 4.034 0.542 7.816 1.343 11.181-3.115 0.679-5.946 1.638-8.326 2.838C9.062 43.083 7.233 38.247 7.025 33zM12.076 16.921c2.31 1.303 5.112 2.353 8.226 3.115-0.77 3.31-1.224 7.016-1.29 10.964H18c-0.158 0-0.302 0.044-0.435 0.109-0.393-1.414-1.678-2.459-3.215-2.459-1.497 0-2.753 0.993-3.181 2.351H7.025C7.234 25.726 9.082 20.868 12.076 16.921zM32 25c0.551 0 1 0.449 1 1s-0.449 1-1 1-1-0.449-1-1S31.449 25 32 25zM33 28.816c1.161-0.415 2-1.514 2-2.816s-0.839-2.401-2-2.816v-1.732c3.021-0.016 5.976-0.278 8.766-0.749 0.72 3.132 1.155 6.626 1.223 10.297H33V28.816zM33 19.452V7.113c3.437 0.743 6.471 5.258 8.271 11.65C38.643 19.196 35.854 19.436 33 19.452zM31 7.113v12.303c-2.863-0.087-5.625-0.39-8.203-0.891C24.605 12.259 27.607 7.846 31 7.113zM31 21.432v1.752c-1.162 0.415-2 1.514-2 2.816s0.838 2.401 2 2.815V31h-9.988c0.069-3.76 0.523-7.335 1.275-10.526C25.028 21.015 27.967 21.343 31 21.432zM15.701 32c0 0.745-0.606 1.351-1.351 1.351S13 32.745 13 32s0.606-1.351 1.351-1.351S15.701 31.255 15.701 32zM21.012 33H31v10.018c-2.985 0.034-5.9 0.304-8.65 0.781C21.56 40.541 21.083 36.866 21.012 33zM31 45.017v11.87c-3.347-0.723-6.313-5.023-8.129-11.152C25.453 45.297 28.191 45.05 31 45.017zM33 56.887v-11.86c0.064 0.002 0.13 0.002 0.193 0.004C33.616 46.177 34.709 47 36 47c1.125 0 2.095-0.629 2.608-1.548 0.846 0.111 1.676 0.241 2.489 0.392C39.279 51.916 36.327 56.168 33 56.887zM36 45c-0.552 0-1-0.448-1-1s0.448-1 1-1 1 0.448 1 1S36.552 45 36 45zM38.947 43.481C38.7 42.074 37.477 41 36 41c-1.313 0-2.42 0.854-2.825 2.03-0.058-0.001-0.116-0.002-0.175-0.003V33h9.988c-0.071 3.91-0.56 7.623-1.365 10.908C40.748 43.742 39.855 43.602 38.947 43.481zM44.988 31c-0.064-3.829-0.493-7.432-1.222-10.666 3.201-0.68 6.104-1.659 8.542-2.887 2.766 3.849 4.467 8.51 4.666 13.552H44.988zM51.047 15.833c-2.235 1.081-4.864 1.953-7.767 2.563-1.282-4.651-3.211-8.394-5.552-10.727C43.007 8.913 47.645 11.83 51.047 15.833zM26.272 7.67c-2.29 2.282-4.186 5.909-5.468 10.419-2.8-0.683-5.322-1.606-7.424-2.749C16.739 11.59 21.211 8.861 26.272 7.67zM13.338 48.611c2.173-1.047 4.719-1.893 7.522-2.498 1.281 4.417 3.156 7.969 5.412 10.217C21.189 55.134 16.702 52.386 13.338 48.611zM37.729 56.33c2.23-2.223 4.088-5.723 5.367-10.071 2.77 0.646 5.274 1.522 7.361 2.585C47.117 52.5 42.707 55.158 37.729 56.33z" fill="#000000" data-fill-palette-color="accent"></path></g></svg><g></g></g></svg></g><g></g></svg></g><defs></defs></svg><rect width="347.7730153636099" height="247.2" fill="none" stroke="none" visibility="hidden"></rect></g></svg></g></svg>